<mxfile host="app.diagrams.net" modified="2022-10-29T14:03:53.190Z" agent="5.0 (Windows NT 10.0; Win64; x64) AppleWebKit/537.36 (KHTML, like Gecko) Chrome/106.0.0.0 Safari/537.36" etag="W-xswM9Ykk33mNThUlel" version="20.5.1" type="github">
  <diagram id="C5RBs43oDa-KdzZeNtuy" name="Page-1">
    <mxGraphModel dx="1304" dy="698" grid="1" gridSize="10" guides="1" tooltips="1" connect="1" arrows="1" fold="1" page="1" pageScale="1" pageWidth="827" pageHeight="1169" math="0" shadow="0">
      <root>
        <mxCell id="WIyWlLk6GJQsqaUBKTNV-0" />
        <mxCell id="WIyWlLk6GJQsqaUBKTNV-1" parent="WIyWlLk6GJQsqaUBKTNV-0" />
        <mxCell id="AVepq68-rCr4zFe2wTnl-0" value="Book" style="swimlane;fontStyle=1;align=center;verticalAlign=top;childLayout=stackLayout;horizontal=1;startSize=26;horizontalStack=0;resizeParent=1;resizeParentMax=0;resizeLast=0;collapsible=1;marginBottom=0;" vertex="1" parent="WIyWlLk6GJQsqaUBKTNV-1">
          <mxGeometry x="400" y="130" width="160" height="270" as="geometry" />
        </mxCell>
        <mxCell id="AVepq68-rCr4zFe2wTnl-1" value="-id : int&#xa;-name: String&#xa;-description : String&#xa;-categoryId : int&#xa;-publicshinghouseId : int&#xa;-pdf : String&#xa;-img : StringÂ " style="text;strokeColor=none;fillColor=none;align=left;verticalAlign=top;spacingLeft=4;spacingRight=4;overflow=hidden;rotatable=0;points=[[0,0.5],[1,0.5]];portConstraint=eastwest;" vertex="1" parent="AVepq68-rCr4zFe2wTnl-0">
          <mxGeometry y="26" width="160" height="114" as="geometry" />
        </mxCell>
        <mxCell id="AVepq68-rCr4zFe2wTnl-2" value="" style="line;strokeWidth=1;fillColor=none;align=left;verticalAlign=middle;spacingTop=-1;spacingLeft=3;spacingRight=3;rotatable=0;labelPosition=right;points=[];portConstraint=eastwest;strokeColor=inherit;" vertex="1" parent="AVepq68-rCr4zFe2wTnl-0">
          <mxGeometry y="140" width="160" height="40" as="geometry" />
        </mxCell>
        <mxCell id="AVepq68-rCr4zFe2wTnl-3" value="+ AddBook(): void&#xa;+ChangeBook(): void&#xa;+DeleteBook(): void&#xa;+FindBook(): void&#xa;" style="text;strokeColor=none;fillColor=none;align=left;verticalAlign=top;spacingLeft=4;spacingRight=4;overflow=hidden;rotatable=0;points=[[0,0.5],[1,0.5]];portConstraint=eastwest;" vertex="1" parent="AVepq68-rCr4zFe2wTnl-0">
          <mxGeometry y="180" width="160" height="90" as="geometry" />
        </mxCell>
        <mxCell id="AVepq68-rCr4zFe2wTnl-4" value="BookAuthor" style="swimlane;fontStyle=1;align=center;verticalAlign=top;childLayout=stackLayout;horizontal=1;startSize=26;horizontalStack=0;resizeParent=1;resizeParentMax=0;resizeLast=0;collapsible=1;marginBottom=0;" vertex="1" parent="WIyWlLk6GJQsqaUBKTNV-1">
          <mxGeometry x="60" y="10" width="160" height="230" as="geometry" />
        </mxCell>
        <mxCell id="AVepq68-rCr4zFe2wTnl-5" value="-id : int&#xa;-name: String&#xa;-description : String&#xa;-email: String&#xa;-address: String" style="text;strokeColor=none;fillColor=none;align=left;verticalAlign=top;spacingLeft=4;spacingRight=4;overflow=hidden;rotatable=0;points=[[0,0.5],[1,0.5]];portConstraint=eastwest;" vertex="1" parent="AVepq68-rCr4zFe2wTnl-4">
          <mxGeometry y="26" width="160" height="84" as="geometry" />
        </mxCell>
        <mxCell id="AVepq68-rCr4zFe2wTnl-6" value="" style="line;strokeWidth=1;fillColor=none;align=left;verticalAlign=middle;spacingTop=-1;spacingLeft=3;spacingRight=3;rotatable=0;labelPosition=right;points=[];portConstraint=eastwest;strokeColor=inherit;" vertex="1" parent="AVepq68-rCr4zFe2wTnl-4">
          <mxGeometry y="110" width="160" height="30" as="geometry" />
        </mxCell>
        <mxCell id="AVepq68-rCr4zFe2wTnl-7" value="+ AddAuthor(): void&#xa;+ChangeAuthor(): void&#xa;+DeleteAuthor(): void" style="text;strokeColor=none;fillColor=none;align=left;verticalAlign=top;spacingLeft=4;spacingRight=4;overflow=hidden;rotatable=0;points=[[0,0.5],[1,0.5]];portConstraint=eastwest;" vertex="1" parent="AVepq68-rCr4zFe2wTnl-4">
          <mxGeometry y="140" width="160" height="90" as="geometry" />
        </mxCell>
        <mxCell id="AVepq68-rCr4zFe2wTnl-8" value="User" style="swimlane;fontStyle=1;align=center;verticalAlign=top;childLayout=stackLayout;horizontal=1;startSize=26;horizontalStack=0;resizeParent=1;resizeParentMax=0;resizeLast=0;collapsible=1;marginBottom=0;" vertex="1" parent="WIyWlLk6GJQsqaUBKTNV-1">
          <mxGeometry x="660" y="20" width="160" height="230" as="geometry" />
        </mxCell>
        <mxCell id="AVepq68-rCr4zFe2wTnl-9" value="-id : int&#xa;-username: String&#xa;-password: String&#xa;-email: String&#xa;-roleId: int" style="text;strokeColor=none;fillColor=none;align=left;verticalAlign=top;spacingLeft=4;spacingRight=4;overflow=hidden;rotatable=0;points=[[0,0.5],[1,0.5]];portConstraint=eastwest;" vertex="1" parent="AVepq68-rCr4zFe2wTnl-8">
          <mxGeometry y="26" width="160" height="84" as="geometry" />
        </mxCell>
        <mxCell id="AVepq68-rCr4zFe2wTnl-10" value="" style="line;strokeWidth=1;fillColor=none;align=left;verticalAlign=middle;spacingTop=-1;spacingLeft=3;spacingRight=3;rotatable=0;labelPosition=right;points=[];portConstraint=eastwest;strokeColor=inherit;" vertex="1" parent="AVepq68-rCr4zFe2wTnl-8">
          <mxGeometry y="110" width="160" height="20" as="geometry" />
        </mxCell>
        <mxCell id="AVepq68-rCr4zFe2wTnl-11" value="+ AddUser(): void&#xa;+ChangeUser(): void&#xa;+DeleteUser(): void&#xa;" style="text;strokeColor=none;fillColor=none;align=left;verticalAlign=top;spacingLeft=4;spacingRight=4;overflow=hidden;rotatable=0;points=[[0,0.5],[1,0.5]];portConstraint=eastwest;" vertex="1" parent="AVepq68-rCr4zFe2wTnl-8">
          <mxGeometry y="130" width="160" height="100" as="geometry" />
        </mxCell>
        <mxCell id="AVepq68-rCr4zFe2wTnl-12" value="Category" style="swimlane;fontStyle=1;align=center;verticalAlign=top;childLayout=stackLayout;horizontal=1;startSize=26;horizontalStack=0;resizeParent=1;resizeParentMax=0;resizeLast=0;collapsible=1;marginBottom=0;" vertex="1" parent="WIyWlLk6GJQsqaUBKTNV-1">
          <mxGeometry x="40" y="280" width="160" height="190" as="geometry" />
        </mxCell>
        <mxCell id="AVepq68-rCr4zFe2wTnl-13" value="-id : int&#xa;-name: String&#xa;-description : String" style="text;strokeColor=none;fillColor=none;align=left;verticalAlign=top;spacingLeft=4;spacingRight=4;overflow=hidden;rotatable=0;points=[[0,0.5],[1,0.5]];portConstraint=eastwest;" vertex="1" parent="AVepq68-rCr4zFe2wTnl-12">
          <mxGeometry y="26" width="160" height="54" as="geometry" />
        </mxCell>
        <mxCell id="AVepq68-rCr4zFe2wTnl-14" value="" style="line;strokeWidth=1;fillColor=none;align=left;verticalAlign=middle;spacingTop=-1;spacingLeft=3;spacingRight=3;rotatable=0;labelPosition=right;points=[];portConstraint=eastwest;strokeColor=inherit;" vertex="1" parent="AVepq68-rCr4zFe2wTnl-12">
          <mxGeometry y="80" width="160" height="30" as="geometry" />
        </mxCell>
        <mxCell id="AVepq68-rCr4zFe2wTnl-15" value="+ AddCategory(): void&#xa;+ChangeCategory(): void&#xa;+DeleteCategory(): void" style="text;strokeColor=none;fillColor=none;align=left;verticalAlign=top;spacingLeft=4;spacingRight=4;overflow=hidden;rotatable=0;points=[[0,0.5],[1,0.5]];portConstraint=eastwest;" vertex="1" parent="AVepq68-rCr4zFe2wTnl-12">
          <mxGeometry y="110" width="160" height="80" as="geometry" />
        </mxCell>
        <mxCell id="AVepq68-rCr4zFe2wTnl-16" value="Publicshinghouse" style="swimlane;fontStyle=1;align=center;verticalAlign=top;childLayout=stackLayout;horizontal=1;startSize=26;horizontalStack=0;resizeParent=1;resizeParentMax=0;resizeLast=0;collapsible=1;marginBottom=0;" vertex="1" parent="WIyWlLk6GJQsqaUBKTNV-1">
          <mxGeometry x="667" y="310" width="160" height="250" as="geometry" />
        </mxCell>
        <mxCell id="AVepq68-rCr4zFe2wTnl-17" value="-id : int&#xa;-name: String&#xa;-description : String&#xa;-email: String&#xa;-address: String" style="text;strokeColor=none;fillColor=none;align=left;verticalAlign=top;spacingLeft=4;spacingRight=4;overflow=hidden;rotatable=0;points=[[0,0.5],[1,0.5]];portConstraint=eastwest;" vertex="1" parent="AVepq68-rCr4zFe2wTnl-16">
          <mxGeometry y="26" width="160" height="84" as="geometry" />
        </mxCell>
        <mxCell id="AVepq68-rCr4zFe2wTnl-18" value="" style="line;strokeWidth=1;fillColor=none;align=left;verticalAlign=middle;spacingTop=-1;spacingLeft=3;spacingRight=3;rotatable=0;labelPosition=right;points=[];portConstraint=eastwest;strokeColor=inherit;" vertex="1" parent="AVepq68-rCr4zFe2wTnl-16">
          <mxGeometry y="110" width="160" height="30" as="geometry" />
        </mxCell>
        <mxCell id="AVepq68-rCr4zFe2wTnl-19" value="+ AddPH(): void&#xa;+ChangePH(): void&#xa;+DeletePH(): void" style="text;strokeColor=none;fillColor=none;align=left;verticalAlign=top;spacingLeft=4;spacingRight=4;overflow=hidden;rotatable=0;points=[[0,0.5],[1,0.5]];portConstraint=eastwest;" vertex="1" parent="AVepq68-rCr4zFe2wTnl-16">
          <mxGeometry y="140" width="160" height="110" as="geometry" />
        </mxCell>
        <mxCell id="AVepq68-rCr4zFe2wTnl-21" value="" style="endArrow=diamondThin;endFill=1;endSize=24;html=1;rounded=0;entryX=0.994;entryY=1.019;entryDx=0;entryDy=0;entryPerimeter=0;" edge="1" parent="WIyWlLk6GJQsqaUBKTNV-1" source="AVepq68-rCr4zFe2wTnl-1" target="AVepq68-rCr4zFe2wTnl-13">
          <mxGeometry width="160" relative="1" as="geometry">
            <mxPoint x="220" y="270" as="sourcePoint" />
            <mxPoint x="380" y="270" as="targetPoint" />
            <Array as="points">
              <mxPoint x="240" y="320" />
            </Array>
          </mxGeometry>
        </mxCell>
        <mxCell id="AVepq68-rCr4zFe2wTnl-27" value="&lt;font style=&quot;font-size: 14px;&quot;&gt;1..*&lt;/font&gt;" style="edgeLabel;html=1;align=center;verticalAlign=middle;resizable=0;points=[];" vertex="1" connectable="0" parent="AVepq68-rCr4zFe2wTnl-21">
          <mxGeometry x="-0.7149" y="1" relative="1" as="geometry">
            <mxPoint x="-1" as="offset" />
          </mxGeometry>
        </mxCell>
        <mxCell id="AVepq68-rCr4zFe2wTnl-22" value="Thuá»c" style="text;html=1;align=center;verticalAlign=middle;resizable=0;points=[];autosize=1;strokeColor=none;fillColor=none;" vertex="1" parent="WIyWlLk6GJQsqaUBKTNV-1">
          <mxGeometry x="260" y="311" width="60" height="30" as="geometry" />
        </mxCell>
        <mxCell id="AVepq68-rCr4zFe2wTnl-23" value="" style="endArrow=diamondThin;endFill=1;endSize=24;html=1;rounded=0;entryX=0.938;entryY=0.988;entryDx=0;entryDy=0;entryPerimeter=0;" edge="1" parent="WIyWlLk6GJQsqaUBKTNV-1" source="AVepq68-rCr4zFe2wTnl-1" target="AVepq68-rCr4zFe2wTnl-5">
          <mxGeometry width="160" relative="1" as="geometry">
            <mxPoint x="230" y="250" as="sourcePoint" />
            <mxPoint x="380" y="270" as="targetPoint" />
          </mxGeometry>
        </mxCell>
        <mxCell id="AVepq68-rCr4zFe2wTnl-28" value="&lt;font style=&quot;font-size: 14px;&quot;&gt;1..*&lt;/font&gt;" style="edgeLabel;html=1;align=center;verticalAlign=middle;resizable=0;points=[];" vertex="1" connectable="0" parent="AVepq68-rCr4zFe2wTnl-23">
          <mxGeometry x="-0.7353" relative="1" as="geometry">
            <mxPoint as="offset" />
          </mxGeometry>
        </mxCell>
        <mxCell id="AVepq68-rCr4zFe2wTnl-24" value="Cá»§a" style="text;html=1;align=center;verticalAlign=middle;resizable=0;points=[];autosize=1;strokeColor=none;fillColor=none;" vertex="1" parent="WIyWlLk6GJQsqaUBKTNV-1">
          <mxGeometry x="305" y="125" width="50" height="30" as="geometry" />
        </mxCell>
        <mxCell id="AVepq68-rCr4zFe2wTnl-25" value="" style="endArrow=diamondThin;endFill=1;endSize=24;html=1;rounded=0;" edge="1" parent="WIyWlLk6GJQsqaUBKTNV-1" source="AVepq68-rCr4zFe2wTnl-1" target="AVepq68-rCr4zFe2wTnl-17">
          <mxGeometry width="160" relative="1" as="geometry">
            <mxPoint x="220" y="270" as="sourcePoint" />
            <mxPoint x="380" y="270" as="targetPoint" />
          </mxGeometry>
        </mxCell>
        <mxCell id="AVepq68-rCr4zFe2wTnl-26" value="Thuá»c" style="text;html=1;align=center;verticalAlign=middle;resizable=0;points=[];autosize=1;strokeColor=none;fillColor=none;" vertex="1" parent="WIyWlLk6GJQsqaUBKTNV-1">
          <mxGeometry x="570" y="285" width="60" height="30" as="geometry" />
        </mxCell>
        <mxCell id="AVepq68-rCr4zFe2wTnl-34" value="" style="endArrow=open;endFill=1;endSize=12;html=1;rounded=0;fontSize=14;entryX=0.001;entryY=0.191;entryDx=0;entryDy=0;entryPerimeter=0;" edge="1" parent="WIyWlLk6GJQsqaUBKTNV-1" source="AVepq68-rCr4zFe2wTnl-1" target="AVepq68-rCr4zFe2wTnl-9">
          <mxGeometry width="160" relative="1" as="geometry">
            <mxPoint x="400" y="250" as="sourcePoint" />
            <mxPoint x="560" y="250" as="targetPoint" />
          </mxGeometry>
        </mxCell>
        <mxCell id="AVepq68-rCr4zFe2wTnl-36" value="ÄÆ°á»£c Äá»c" style="edgeLabel;html=1;align=center;verticalAlign=middle;resizable=0;points=[];fontSize=14;" vertex="1" connectable="0" parent="AVepq68-rCr4zFe2wTnl-34">
          <mxGeometry x="-0.1397" y="1" relative="1" as="geometry">
            <mxPoint as="offset" />
          </mxGeometry>
        </mxCell>
        <mxCell id="AVepq68-rCr4zFe2wTnl-39" value="1..*" style="edgeLabel;html=1;align=center;verticalAlign=middle;resizable=0;points=[];fontSize=14;" vertex="1" connectable="0" parent="AVepq68-rCr4zFe2wTnl-34">
          <mxGeometry x="-0.6843" y="-2" relative="1" as="geometry">
            <mxPoint as="offset" />
          </mxGeometry>
        </mxCell>
        <mxCell id="AVepq68-rCr4zFe2wTnl-35" value="" style="endArrow=open;endFill=1;endSize=12;html=1;rounded=0;fontSize=14;entryX=0.997;entryY=0.368;entryDx=0;entryDy=0;entryPerimeter=0;exitX=-0.008;exitY=0.856;exitDx=0;exitDy=0;exitPerimeter=0;" edge="1" parent="WIyWlLk6GJQsqaUBKTNV-1" source="AVepq68-rCr4zFe2wTnl-9" target="AVepq68-rCr4zFe2wTnl-1">
          <mxGeometry width="160" relative="1" as="geometry">
            <mxPoint x="558.0272397254828" y="166" as="sourcePoint" />
            <mxPoint x="670.1599999999999" y="72.04399999999998" as="targetPoint" />
            <Array as="points">
              <mxPoint x="610" y="160" />
            </Array>
          </mxGeometry>
        </mxCell>
        <mxCell id="AVepq68-rCr4zFe2wTnl-37" value="Äá»c" style="edgeLabel;html=1;align=center;verticalAlign=middle;resizable=0;points=[];fontSize=14;" vertex="1" connectable="0" parent="AVepq68-rCr4zFe2wTnl-35">
          <mxGeometry x="0.2152" y="-1" relative="1" as="geometry">
            <mxPoint as="offset" />
          </mxGeometry>
        </mxCell>
        <mxCell id="AVepq68-rCr4zFe2wTnl-38" value="1..*" style="edgeLabel;html=1;align=center;verticalAlign=middle;resizable=0;points=[];fontSize=14;" vertex="1" connectable="0" parent="AVepq68-rCr4zFe2wTnl-35">
          <mxGeometry x="-0.7952" y="1" relative="1" as="geometry">
            <mxPoint as="offset" />
          </mxGeometry>
        </mxCell>
      </root>
    </mxGraphModel>
  </diagram>
</mxfile>
